<mxfile host="app.diagrams.net" agent="Mozilla/5.0 (Windows NT 10.0; Win64; x64) AppleWebKit/537.36 (KHTML, like Gecko) Chrome/135.0.0.0 Safari/537.36" version="26.2.10">
  <diagram name="Page-1" id="p1jLnRVpUmf9uzG1gC87">
    <mxGraphModel dx="874" dy="465" grid="1" gridSize="10" guides="1" tooltips="1" connect="1" arrows="1" fold="1" page="1" pageScale="1" pageWidth="850" pageHeight="1100" math="0" shadow="0">
      <root>
        <mxCell id="0" />
        <mxCell id="1" parent="0" />
        <mxCell id="Vw1Mekc3CVg9_VeSN2xD-1" value="&lt;font style=&quot;font-size: 18px; font-weight: normal;&quot;&gt;Stock&lt;/font&gt;" style="swimlane;whiteSpace=wrap;html=1;startSize=30;" parent="1" vertex="1">
          <mxGeometry x="90" y="100" width="170" height="380" as="geometry" />
        </mxCell>
        <mxCell id="Vw1Mekc3CVg9_VeSN2xD-7" value="&lt;font style=&quot;font-size: 18px;&quot;&gt;&amp;nbsp; - &lt;/font&gt;&lt;font size=&quot;3&quot; style=&quot;&quot;&gt;id&amp;nbsp; &amp;nbsp; &amp;nbsp; &amp;nbsp; &amp;nbsp; : int&lt;/font&gt;" style="text;strokeColor=none;fillColor=none;align=left;verticalAlign=middle;spacingLeft=4;spacingRight=4;overflow=hidden;points=[[0,0.5],[1,0.5]];portConstraint=eastwest;rotatable=0;whiteSpace=wrap;html=1;" parent="Vw1Mekc3CVg9_VeSN2xD-1" vertex="1">
          <mxGeometry y="30" width="170" height="30" as="geometry" />
        </mxCell>
        <mxCell id="Vw1Mekc3CVg9_VeSN2xD-8" value="&lt;font style=&quot;font-size: 14px;&quot;&gt;&lt;font style=&quot;&quot;&gt;&amp;nbsp; - &lt;/font&gt;&lt;font style=&quot;&quot;&gt;Size&amp;nbsp; &amp;nbsp; &amp;nbsp; &amp;nbsp; &amp;nbsp;: String&lt;/font&gt;&lt;/font&gt;" style="text;strokeColor=none;fillColor=none;align=left;verticalAlign=middle;spacingLeft=4;spacingRight=4;overflow=hidden;points=[[0,0.5],[1,0.5]];portConstraint=eastwest;rotatable=0;whiteSpace=wrap;html=1;" parent="Vw1Mekc3CVg9_VeSN2xD-1" vertex="1">
          <mxGeometry y="60" width="170" height="30" as="geometry" />
        </mxCell>
        <mxCell id="Vw1Mekc3CVg9_VeSN2xD-9" value="&lt;font style=&quot;font-size: 14px;&quot;&gt;&lt;font style=&quot;&quot;&gt;&amp;nbsp; -&lt;/font&gt;&amp;nbsp;guage&amp;nbsp; &amp;nbsp; &amp;nbsp; : int&lt;/font&gt;" style="text;strokeColor=none;fillColor=none;align=left;verticalAlign=middle;spacingLeft=4;spacingRight=4;overflow=hidden;points=[[0,0.5],[1,0.5]];portConstraint=eastwest;rotatable=0;whiteSpace=wrap;html=1;" parent="Vw1Mekc3CVg9_VeSN2xD-1" vertex="1">
          <mxGeometry y="90" width="170" height="30" as="geometry" />
        </mxCell>
        <mxCell id="Vw1Mekc3CVg9_VeSN2xD-10" value="&lt;font style=&quot;font-size: 14px;&quot;&gt;&lt;font style=&quot;&quot;&gt;&amp;nbsp; -&lt;/font&gt;&amp;nbsp;rate&amp;nbsp; &amp;nbsp; &amp;nbsp; &amp;nbsp; &amp;nbsp; : double&lt;/font&gt;" style="text;strokeColor=none;fillColor=none;align=left;verticalAlign=middle;spacingLeft=4;spacingRight=4;overflow=hidden;points=[[0,0.5],[1,0.5]];portConstraint=eastwest;rotatable=0;whiteSpace=wrap;html=1;" parent="Vw1Mekc3CVg9_VeSN2xD-1" vertex="1">
          <mxGeometry y="120" width="170" height="30" as="geometry" />
        </mxCell>
        <mxCell id="Vw1Mekc3CVg9_VeSN2xD-11" value="&lt;font style=&quot;font-size: 14px;&quot;&gt;&lt;font style=&quot;&quot;&gt;&amp;nbsp; -&lt;/font&gt;&amp;nbsp;weight&amp;nbsp; &amp;nbsp; &amp;nbsp; : double&lt;/font&gt;" style="text;strokeColor=none;fillColor=none;align=left;verticalAlign=middle;spacingLeft=4;spacingRight=4;overflow=hidden;points=[[0,0.5],[1,0.5]];portConstraint=eastwest;rotatable=0;whiteSpace=wrap;html=1;" parent="Vw1Mekc3CVg9_VeSN2xD-1" vertex="1">
          <mxGeometry y="150" width="170" height="30" as="geometry" />
        </mxCell>
        <mxCell id="Vw1Mekc3CVg9_VeSN2xD-12" value="&lt;font style=&quot;font-size: 14px;&quot;&gt;&lt;font style=&quot;&quot;&gt;&amp;nbsp; -&lt;/font&gt;&amp;nbsp;bags&amp;nbsp; &amp;nbsp; &amp;nbsp; &amp;nbsp; &amp;nbsp;: int&lt;/font&gt;" style="text;strokeColor=none;fillColor=none;align=left;verticalAlign=middle;spacingLeft=4;spacingRight=4;overflow=hidden;points=[[0,0.5],[1,0.5]];portConstraint=eastwest;rotatable=0;whiteSpace=wrap;html=1;" parent="Vw1Mekc3CVg9_VeSN2xD-1" vertex="1">
          <mxGeometry y="180" width="170" height="30" as="geometry" />
        </mxCell>
        <mxCell id="Vw1Mekc3CVg9_VeSN2xD-13" value="&lt;font style=&quot;font-size: 14px;&quot;&gt;&lt;font style=&quot;&quot;&gt;&amp;nbsp; -&lt;/font&gt;&amp;nbsp;isSmall&amp;nbsp; &amp;nbsp; &amp;nbsp;: boolean&lt;/font&gt;" style="text;strokeColor=none;fillColor=none;align=left;verticalAlign=middle;spacingLeft=4;spacingRight=4;overflow=hidden;points=[[0,0.5],[1,0.5]];portConstraint=eastwest;rotatable=0;whiteSpace=wrap;html=1;" parent="Vw1Mekc3CVg9_VeSN2xD-1" vertex="1">
          <mxGeometry y="210" width="170" height="30" as="geometry" />
        </mxCell>
        <mxCell id="Vw1Mekc3CVg9_VeSN2xD-14" value="" style="endArrow=none;html=1;rounded=0;" parent="Vw1Mekc3CVg9_VeSN2xD-1" edge="1">
          <mxGeometry width="50" height="50" relative="1" as="geometry">
            <mxPoint x="170" y="240" as="sourcePoint" />
            <mxPoint y="240" as="targetPoint" />
          </mxGeometry>
        </mxCell>
        <mxCell id="Vw1Mekc3CVg9_VeSN2xD-15" value="&lt;font style=&quot;font-size: 14px;&quot;&gt;&amp;nbsp; &amp;nbsp;+ insertRecord()&lt;/font&gt;" style="text;strokeColor=none;fillColor=none;align=left;verticalAlign=middle;spacingLeft=4;spacingRight=4;overflow=hidden;points=[[0,0.5],[1,0.5]];portConstraint=eastwest;rotatable=0;whiteSpace=wrap;html=1;" parent="Vw1Mekc3CVg9_VeSN2xD-1" vertex="1">
          <mxGeometry y="240" width="170" height="30" as="geometry" />
        </mxCell>
        <mxCell id="Vw1Mekc3CVg9_VeSN2xD-16" value="&lt;font style=&quot;font-size: 14px;&quot;&gt;&amp;nbsp; &amp;nbsp;+ updateRecord()&lt;/font&gt;" style="text;strokeColor=none;fillColor=none;align=left;verticalAlign=middle;spacingLeft=4;spacingRight=4;overflow=hidden;points=[[0,0.5],[1,0.5]];portConstraint=eastwest;rotatable=0;whiteSpace=wrap;html=1;" parent="Vw1Mekc3CVg9_VeSN2xD-1" vertex="1">
          <mxGeometry y="270" width="170" height="30" as="geometry" />
        </mxCell>
        <mxCell id="Vw1Mekc3CVg9_VeSN2xD-17" value="&lt;font style=&quot;font-size: 14px;&quot;&gt;&amp;nbsp; &amp;nbsp;+ deleteRecord()&lt;/font&gt;" style="text;strokeColor=none;fillColor=none;align=left;verticalAlign=middle;spacingLeft=4;spacingRight=4;overflow=hidden;points=[[0,0.5],[1,0.5]];portConstraint=eastwest;rotatable=0;whiteSpace=wrap;html=1;" parent="Vw1Mekc3CVg9_VeSN2xD-1" vertex="1">
          <mxGeometry y="300" width="170" height="30" as="geometry" />
        </mxCell>
        <mxCell id="Vw1Mekc3CVg9_VeSN2xD-18" value="&lt;font style=&quot;font-size: 14px;&quot;&gt;&amp;nbsp; &amp;nbsp;+ calculateTotal()&lt;/font&gt;" style="text;strokeColor=none;fillColor=none;align=left;verticalAlign=middle;spacingLeft=4;spacingRight=4;overflow=hidden;points=[[0,0.5],[1,0.5]];portConstraint=eastwest;rotatable=0;whiteSpace=wrap;html=1;" parent="Vw1Mekc3CVg9_VeSN2xD-1" vertex="1">
          <mxGeometry y="330" width="170" height="30" as="geometry" />
        </mxCell>
        <mxCell id="Vw1Mekc3CVg9_VeSN2xD-2" value="&lt;font style=&quot;font-size: 18px; font-weight: normal;&quot;&gt;Payroll&lt;/font&gt;" style="swimlane;whiteSpace=wrap;html=1;startSize=30;" parent="1" vertex="1">
          <mxGeometry x="330" y="100" width="200" height="410" as="geometry" />
        </mxCell>
        <mxCell id="Vw1Mekc3CVg9_VeSN2xD-19" value="&lt;font style=&quot;font-size: 18px;&quot;&gt;&amp;nbsp; - &lt;/font&gt;&lt;font size=&quot;3&quot; style=&quot;&quot;&gt;id&amp;nbsp; &amp;nbsp; &amp;nbsp; &amp;nbsp; &amp;nbsp; &amp;nbsp; &amp;nbsp; &amp;nbsp; &amp;nbsp; &amp;nbsp; &amp;nbsp;: int&lt;/font&gt;" style="text;strokeColor=none;fillColor=none;align=left;verticalAlign=middle;spacingLeft=4;spacingRight=4;overflow=hidden;points=[[0,0.5],[1,0.5]];portConstraint=eastwest;rotatable=0;whiteSpace=wrap;html=1;" parent="Vw1Mekc3CVg9_VeSN2xD-2" vertex="1">
          <mxGeometry y="30" width="170" height="30" as="geometry" />
        </mxCell>
        <mxCell id="Vw1Mekc3CVg9_VeSN2xD-20" value="&lt;font style=&quot;font-size: 18px;&quot;&gt;&amp;nbsp; - &lt;/font&gt;&lt;font size=&quot;3&quot; style=&quot;&quot;&gt;emp_id&amp;nbsp; &amp;nbsp; &amp;nbsp; &amp;nbsp; &amp;nbsp; &amp;nbsp; : int&lt;/font&gt;" style="text;strokeColor=none;fillColor=none;align=left;verticalAlign=middle;spacingLeft=4;spacingRight=4;overflow=hidden;points=[[0,0.5],[1,0.5]];portConstraint=eastwest;rotatable=0;whiteSpace=wrap;html=1;" parent="Vw1Mekc3CVg9_VeSN2xD-2" vertex="1">
          <mxGeometry y="60" width="170" height="30" as="geometry" />
        </mxCell>
        <mxCell id="Vw1Mekc3CVg9_VeSN2xD-21" value="&lt;font style=&quot;font-size: 18px;&quot;&gt;&amp;nbsp; - &lt;/font&gt;&lt;font size=&quot;3&quot; style=&quot;&quot;&gt;basic_salary&amp;nbsp; &amp;nbsp; : int&lt;/font&gt;" style="text;strokeColor=none;fillColor=none;align=left;verticalAlign=middle;spacingLeft=4;spacingRight=4;overflow=hidden;points=[[0,0.5],[1,0.5]];portConstraint=eastwest;rotatable=0;whiteSpace=wrap;html=1;" parent="Vw1Mekc3CVg9_VeSN2xD-2" vertex="1">
          <mxGeometry y="90" width="170" height="30" as="geometry" />
        </mxCell>
        <mxCell id="Vw1Mekc3CVg9_VeSN2xD-22" value="&lt;font style=&quot;font-size: 18px;&quot;&gt;&amp;nbsp; - &lt;/font&gt;&lt;font size=&quot;3&quot; style=&quot;&quot;&gt;working_days&amp;nbsp; : int&lt;/font&gt;" style="text;strokeColor=none;fillColor=none;align=left;verticalAlign=middle;spacingLeft=4;spacingRight=4;overflow=hidden;points=[[0,0.5],[1,0.5]];portConstraint=eastwest;rotatable=0;whiteSpace=wrap;html=1;" parent="Vw1Mekc3CVg9_VeSN2xD-2" vertex="1">
          <mxGeometry y="120" width="170" height="30" as="geometry" />
        </mxCell>
        <mxCell id="Vw1Mekc3CVg9_VeSN2xD-23" value="&lt;font style=&quot;font-size: 18px;&quot;&gt;&amp;nbsp; - &lt;/font&gt;&lt;font size=&quot;3&quot; style=&quot;&quot;&gt;deductions&amp;nbsp; &amp;nbsp; &amp;nbsp; &amp;nbsp;: int&lt;/font&gt;" style="text;strokeColor=none;fillColor=none;align=left;verticalAlign=middle;spacingLeft=4;spacingRight=4;overflow=hidden;points=[[0,0.5],[1,0.5]];portConstraint=eastwest;rotatable=0;whiteSpace=wrap;html=1;" parent="Vw1Mekc3CVg9_VeSN2xD-2" vertex="1">
          <mxGeometry y="150" width="170" height="30" as="geometry" />
        </mxCell>
        <mxCell id="Vw1Mekc3CVg9_VeSN2xD-24" value="&lt;font style=&quot;font-size: 18px;&quot;&gt;&amp;nbsp; - &lt;/font&gt;&lt;font size=&quot;3&quot; style=&quot;&quot;&gt;overtime&amp;nbsp; &amp;nbsp; &amp;nbsp; &amp;nbsp; &amp;nbsp; : double&lt;/font&gt;" style="text;strokeColor=none;fillColor=none;align=left;verticalAlign=middle;spacingLeft=4;spacingRight=4;overflow=hidden;points=[[0,0.5],[1,0.5]];portConstraint=eastwest;rotatable=0;whiteSpace=wrap;html=1;" parent="Vw1Mekc3CVg9_VeSN2xD-2" vertex="1">
          <mxGeometry y="180" width="200" height="30" as="geometry" />
        </mxCell>
        <mxCell id="Vw1Mekc3CVg9_VeSN2xD-25" value="&lt;font style=&quot;font-size: 18px;&quot;&gt;&amp;nbsp; - &lt;/font&gt;&lt;font size=&quot;3&quot; style=&quot;&quot;&gt;month&amp;nbsp; &amp;nbsp; &amp;nbsp; &amp;nbsp; &amp;nbsp; &amp;nbsp; &amp;nbsp; : Date&lt;/font&gt;" style="text;strokeColor=none;fillColor=none;align=left;verticalAlign=middle;spacingLeft=4;spacingRight=4;overflow=hidden;points=[[0,0.5],[1,0.5]];portConstraint=eastwest;rotatable=0;whiteSpace=wrap;html=1;" parent="Vw1Mekc3CVg9_VeSN2xD-2" vertex="1">
          <mxGeometry y="210" width="200" height="30" as="geometry" />
        </mxCell>
        <mxCell id="Vw1Mekc3CVg9_VeSN2xD-26" value="" style="endArrow=none;html=1;rounded=0;" parent="Vw1Mekc3CVg9_VeSN2xD-2" edge="1">
          <mxGeometry width="50" height="50" relative="1" as="geometry">
            <mxPoint y="244" as="sourcePoint" />
            <mxPoint x="200" y="244" as="targetPoint" />
          </mxGeometry>
        </mxCell>
        <mxCell id="Vw1Mekc3CVg9_VeSN2xD-27" value="&lt;font style=&quot;font-size: 14px;&quot;&gt;&amp;nbsp; &amp;nbsp;+ generatePayrollSlip()&lt;/font&gt;" style="text;strokeColor=none;fillColor=none;align=left;verticalAlign=middle;spacingLeft=4;spacingRight=4;overflow=hidden;points=[[0,0.5],[1,0.5]];portConstraint=eastwest;rotatable=0;whiteSpace=wrap;html=1;" parent="Vw1Mekc3CVg9_VeSN2xD-2" vertex="1">
          <mxGeometry y="250" width="170" height="30" as="geometry" />
        </mxCell>
        <mxCell id="Vw1Mekc3CVg9_VeSN2xD-28" value="&lt;font style=&quot;font-size: 14px;&quot;&gt;&amp;nbsp; &amp;nbsp;+ calculateSalary()&lt;/font&gt;" style="text;strokeColor=none;fillColor=none;align=left;verticalAlign=middle;spacingLeft=4;spacingRight=4;overflow=hidden;points=[[0,0.5],[1,0.5]];portConstraint=eastwest;rotatable=0;whiteSpace=wrap;html=1;" parent="Vw1Mekc3CVg9_VeSN2xD-2" vertex="1">
          <mxGeometry y="280" width="170" height="30" as="geometry" />
        </mxCell>
        <mxCell id="Vw1Mekc3CVg9_VeSN2xD-29" value="&lt;font style=&quot;font-size: 14px;&quot;&gt;&amp;nbsp; &amp;nbsp;+ insertRecord()&lt;/font&gt;" style="text;strokeColor=none;fillColor=none;align=left;verticalAlign=middle;spacingLeft=4;spacingRight=4;overflow=hidden;points=[[0,0.5],[1,0.5]];portConstraint=eastwest;rotatable=0;whiteSpace=wrap;html=1;" parent="Vw1Mekc3CVg9_VeSN2xD-2" vertex="1">
          <mxGeometry y="310" width="170" height="30" as="geometry" />
        </mxCell>
        <mxCell id="Vw1Mekc3CVg9_VeSN2xD-30" value="&lt;font style=&quot;font-size: 14px;&quot;&gt;&amp;nbsp; &amp;nbsp;+ updateRecord()&lt;/font&gt;" style="text;strokeColor=none;fillColor=none;align=left;verticalAlign=middle;spacingLeft=4;spacingRight=4;overflow=hidden;points=[[0,0.5],[1,0.5]];portConstraint=eastwest;rotatable=0;whiteSpace=wrap;html=1;" parent="Vw1Mekc3CVg9_VeSN2xD-2" vertex="1">
          <mxGeometry y="340" width="170" height="30" as="geometry" />
        </mxCell>
        <mxCell id="Vw1Mekc3CVg9_VeSN2xD-31" value="&lt;font style=&quot;font-size: 14px;&quot;&gt;&amp;nbsp; &amp;nbsp;+ deleteRecord()&lt;/font&gt;" style="text;strokeColor=none;fillColor=none;align=left;verticalAlign=middle;spacingLeft=4;spacingRight=4;overflow=hidden;points=[[0,0.5],[1,0.5]];portConstraint=eastwest;rotatable=0;whiteSpace=wrap;html=1;" parent="Vw1Mekc3CVg9_VeSN2xD-2" vertex="1">
          <mxGeometry y="370" width="170" height="30" as="geometry" />
        </mxCell>
        <mxCell id="Vw1Mekc3CVg9_VeSN2xD-3" value="&lt;font style=&quot;font-size: 18px; font-weight: normal;&quot;&gt;Attendance&lt;/font&gt;" style="swimlane;whiteSpace=wrap;html=1;startSize=30;" parent="1" vertex="1">
          <mxGeometry x="560" y="100" width="280" height="260" as="geometry" />
        </mxCell>
        <mxCell id="Vw1Mekc3CVg9_VeSN2xD-32" value="&lt;font style=&quot;font-size: 18px;&quot;&gt;&amp;nbsp; - &lt;/font&gt;&lt;font size=&quot;3&quot; style=&quot;&quot;&gt;id&amp;nbsp; &amp;nbsp; &amp;nbsp; &amp;nbsp; &amp;nbsp; &amp;nbsp; &amp;nbsp;: int&lt;/font&gt;" style="text;strokeColor=none;fillColor=none;align=left;verticalAlign=middle;spacingLeft=4;spacingRight=4;overflow=hidden;points=[[0,0.5],[1,0.5]];portConstraint=eastwest;rotatable=0;whiteSpace=wrap;html=1;" parent="Vw1Mekc3CVg9_VeSN2xD-3" vertex="1">
          <mxGeometry y="30" width="170" height="30" as="geometry" />
        </mxCell>
        <mxCell id="Vw1Mekc3CVg9_VeSN2xD-33" value="&lt;font style=&quot;font-size: 18px;&quot;&gt;&amp;nbsp; - &lt;/font&gt;&lt;font size=&quot;3&quot; style=&quot;&quot;&gt;emp_id&amp;nbsp; &amp;nbsp; : int&lt;/font&gt;" style="text;strokeColor=none;fillColor=none;align=left;verticalAlign=middle;spacingLeft=4;spacingRight=4;overflow=hidden;points=[[0,0.5],[1,0.5]];portConstraint=eastwest;rotatable=0;whiteSpace=wrap;html=1;" parent="Vw1Mekc3CVg9_VeSN2xD-3" vertex="1">
          <mxGeometry y="60" width="170" height="30" as="geometry" />
        </mxCell>
        <mxCell id="Vw1Mekc3CVg9_VeSN2xD-34" value="&lt;font style=&quot;font-size: 18px;&quot;&gt;&amp;nbsp; - &lt;/font&gt;&lt;font size=&quot;3&quot; style=&quot;&quot;&gt;status(present/absent/half) : String&lt;/font&gt;" style="text;strokeColor=none;fillColor=none;align=left;verticalAlign=middle;spacingLeft=4;spacingRight=4;overflow=hidden;points=[[0,0.5],[1,0.5]];portConstraint=eastwest;rotatable=0;whiteSpace=wrap;html=1;" parent="Vw1Mekc3CVg9_VeSN2xD-3" vertex="1">
          <mxGeometry y="90" width="280" height="30" as="geometry" />
        </mxCell>
        <mxCell id="Vw1Mekc3CVg9_VeSN2xD-35" value="&lt;font style=&quot;font-size: 18px;&quot;&gt;&amp;nbsp; - &lt;/font&gt;&lt;font size=&quot;3&quot; style=&quot;&quot;&gt;overtime(optional) : double&lt;/font&gt;" style="text;strokeColor=none;fillColor=none;align=left;verticalAlign=middle;spacingLeft=4;spacingRight=4;overflow=hidden;points=[[0,0.5],[1,0.5]];portConstraint=eastwest;rotatable=0;whiteSpace=wrap;html=1;" parent="Vw1Mekc3CVg9_VeSN2xD-3" vertex="1">
          <mxGeometry y="120" width="280" height="30" as="geometry" />
        </mxCell>
        <mxCell id="Vw1Mekc3CVg9_VeSN2xD-36" value="&lt;font style=&quot;font-size: 18px;&quot;&gt;&amp;nbsp; - &lt;/font&gt;&lt;font size=&quot;3&quot; style=&quot;&quot;&gt;date&amp;nbsp; &amp;nbsp; &amp;nbsp; &amp;nbsp; &amp;nbsp; &amp;nbsp; &amp;nbsp; &amp;nbsp; &amp;nbsp; &amp;nbsp; &amp;nbsp; &amp;nbsp;: Date&lt;/font&gt;" style="text;strokeColor=none;fillColor=none;align=left;verticalAlign=middle;spacingLeft=4;spacingRight=4;overflow=hidden;points=[[0,0.5],[1,0.5]];portConstraint=eastwest;rotatable=0;whiteSpace=wrap;html=1;" parent="Vw1Mekc3CVg9_VeSN2xD-3" vertex="1">
          <mxGeometry y="150" width="250" height="30" as="geometry" />
        </mxCell>
        <mxCell id="Vw1Mekc3CVg9_VeSN2xD-37" value="" style="endArrow=none;html=1;rounded=0;exitX=0;exitY=0.5;exitDx=0;exitDy=0;" parent="Vw1Mekc3CVg9_VeSN2xD-3" edge="1">
          <mxGeometry width="50" height="50" relative="1" as="geometry">
            <mxPoint y="180" as="sourcePoint" />
            <mxPoint x="280" y="180" as="targetPoint" />
          </mxGeometry>
        </mxCell>
        <mxCell id="Vw1Mekc3CVg9_VeSN2xD-38" value="&lt;font style=&quot;font-size: 14px;&quot;&gt;&amp;nbsp; &amp;nbsp;+ registerAttendance()&lt;/font&gt;" style="text;strokeColor=none;fillColor=none;align=left;verticalAlign=middle;spacingLeft=4;spacingRight=4;overflow=hidden;points=[[0,0.5],[1,0.5]];portConstraint=eastwest;rotatable=0;whiteSpace=wrap;html=1;" parent="Vw1Mekc3CVg9_VeSN2xD-3" vertex="1">
          <mxGeometry y="180" width="170" height="30" as="geometry" />
        </mxCell>
        <mxCell id="Vw1Mekc3CVg9_VeSN2xD-39" value="&lt;font style=&quot;font-size: 14px;&quot;&gt;&amp;nbsp; &amp;nbsp;+ updateAttendance()&lt;/font&gt;" style="text;strokeColor=none;fillColor=none;align=left;verticalAlign=middle;spacingLeft=4;spacingRight=4;overflow=hidden;points=[[0,0.5],[1,0.5]];portConstraint=eastwest;rotatable=0;whiteSpace=wrap;html=1;" parent="Vw1Mekc3CVg9_VeSN2xD-3" vertex="1">
          <mxGeometry y="210" width="170" height="30" as="geometry" />
        </mxCell>
        <mxCell id="Vw1Mekc3CVg9_VeSN2xD-4" value="&lt;font style=&quot;font-size: 18px; font-weight: normal;&quot;&gt;Prepayment&lt;/font&gt;" style="swimlane;whiteSpace=wrap;html=1;startSize=30;" parent="1" vertex="1">
          <mxGeometry x="90" y="560" width="170" height="260" as="geometry" />
        </mxCell>
        <mxCell id="Vw1Mekc3CVg9_VeSN2xD-40" value="&lt;font style=&quot;font-size: 18px;&quot;&gt;&amp;nbsp; - &lt;/font&gt;&lt;font size=&quot;3&quot; style=&quot;&quot;&gt;id&amp;nbsp; &amp;nbsp; &amp;nbsp; &amp;nbsp; &amp;nbsp; &amp;nbsp;: int&lt;/font&gt;" style="text;strokeColor=none;fillColor=none;align=left;verticalAlign=middle;spacingLeft=4;spacingRight=4;overflow=hidden;points=[[0,0.5],[1,0.5]];portConstraint=eastwest;rotatable=0;whiteSpace=wrap;html=1;" parent="Vw1Mekc3CVg9_VeSN2xD-4" vertex="1">
          <mxGeometry y="30" width="170" height="30" as="geometry" />
        </mxCell>
        <mxCell id="Vw1Mekc3CVg9_VeSN2xD-41" value="&lt;font style=&quot;font-size: 18px;&quot;&gt;&amp;nbsp; - &lt;/font&gt;&lt;font size=&quot;3&quot; style=&quot;&quot;&gt;emp_id&amp;nbsp; : int&lt;/font&gt;" style="text;strokeColor=none;fillColor=none;align=left;verticalAlign=middle;spacingLeft=4;spacingRight=4;overflow=hidden;points=[[0,0.5],[1,0.5]];portConstraint=eastwest;rotatable=0;whiteSpace=wrap;html=1;" parent="Vw1Mekc3CVg9_VeSN2xD-4" vertex="1">
          <mxGeometry y="60" width="170" height="30" as="geometry" />
        </mxCell>
        <mxCell id="Vw1Mekc3CVg9_VeSN2xD-42" value="&lt;font style=&quot;font-size: 18px;&quot;&gt;&amp;nbsp; - &lt;/font&gt;&lt;font size=&quot;3&quot; style=&quot;&quot;&gt;amount&amp;nbsp; : int&lt;/font&gt;" style="text;strokeColor=none;fillColor=none;align=left;verticalAlign=middle;spacingLeft=4;spacingRight=4;overflow=hidden;points=[[0,0.5],[1,0.5]];portConstraint=eastwest;rotatable=0;whiteSpace=wrap;html=1;" parent="Vw1Mekc3CVg9_VeSN2xD-4" vertex="1">
          <mxGeometry y="90" width="170" height="30" as="geometry" />
        </mxCell>
        <mxCell id="Vw1Mekc3CVg9_VeSN2xD-43" value="&lt;font style=&quot;font-size: 18px;&quot;&gt;&amp;nbsp; - &lt;/font&gt;&lt;font size=&quot;3&quot; style=&quot;&quot;&gt;reason&amp;nbsp; &amp;nbsp;: String&lt;/font&gt;" style="text;strokeColor=none;fillColor=none;align=left;verticalAlign=middle;spacingLeft=4;spacingRight=4;overflow=hidden;points=[[0,0.5],[1,0.5]];portConstraint=eastwest;rotatable=0;whiteSpace=wrap;html=1;" parent="Vw1Mekc3CVg9_VeSN2xD-4" vertex="1">
          <mxGeometry y="120" width="170" height="30" as="geometry" />
        </mxCell>
        <mxCell id="Vw1Mekc3CVg9_VeSN2xD-44" value="&lt;font style=&quot;font-size: 18px;&quot;&gt;&amp;nbsp; - &lt;/font&gt;&lt;font size=&quot;3&quot; style=&quot;&quot;&gt;date&amp;nbsp; &amp;nbsp; &amp;nbsp; &amp;nbsp;: Date&lt;/font&gt;" style="text;strokeColor=none;fillColor=none;align=left;verticalAlign=middle;spacingLeft=4;spacingRight=4;overflow=hidden;points=[[0,0.5],[1,0.5]];portConstraint=eastwest;rotatable=0;whiteSpace=wrap;html=1;" parent="Vw1Mekc3CVg9_VeSN2xD-4" vertex="1">
          <mxGeometry y="150" width="170" height="30" as="geometry" />
        </mxCell>
        <mxCell id="Vw1Mekc3CVg9_VeSN2xD-46" value="&lt;font style=&quot;font-size: 14px;&quot;&gt;&amp;nbsp; &amp;nbsp;+ insertRecord()&lt;/font&gt;" style="text;strokeColor=none;fillColor=none;align=left;verticalAlign=middle;spacingLeft=4;spacingRight=4;overflow=hidden;points=[[0,0.5],[1,0.5]];portConstraint=eastwest;rotatable=0;whiteSpace=wrap;html=1;" parent="Vw1Mekc3CVg9_VeSN2xD-4" vertex="1">
          <mxGeometry y="200" width="170" height="30" as="geometry" />
        </mxCell>
        <mxCell id="Vw1Mekc3CVg9_VeSN2xD-47" value="&lt;font style=&quot;font-size: 14px;&quot;&gt;&amp;nbsp; &amp;nbsp;+ printReport()&lt;/font&gt;" style="text;strokeColor=none;fillColor=none;align=left;verticalAlign=middle;spacingLeft=4;spacingRight=4;overflow=hidden;points=[[0,0.5],[1,0.5]];portConstraint=eastwest;rotatable=0;whiteSpace=wrap;html=1;" parent="Vw1Mekc3CVg9_VeSN2xD-4" vertex="1">
          <mxGeometry y="230" width="170" height="30" as="geometry" />
        </mxCell>
        <mxCell id="Vw1Mekc3CVg9_VeSN2xD-5" value="&lt;font style=&quot;font-size: 18px; font-weight: normal;&quot;&gt;Employee&lt;/font&gt;" style="swimlane;whiteSpace=wrap;html=1;startSize=30;" parent="1" vertex="1">
          <mxGeometry x="320" y="560" width="220" height="340" as="geometry" />
        </mxCell>
        <mxCell id="Vw1Mekc3CVg9_VeSN2xD-48" value="&lt;font style=&quot;font-size: 18px;&quot;&gt;&amp;nbsp; - &lt;/font&gt;&lt;font size=&quot;3&quot; style=&quot;&quot;&gt;id&amp;nbsp; &amp;nbsp; &amp;nbsp; &amp;nbsp; &amp;nbsp; &amp;nbsp; &amp;nbsp; &amp;nbsp;: int&lt;/font&gt;" style="text;strokeColor=none;fillColor=none;align=left;verticalAlign=middle;spacingLeft=4;spacingRight=4;overflow=hidden;points=[[0,0.5],[1,0.5]];portConstraint=eastwest;rotatable=0;whiteSpace=wrap;html=1;" parent="Vw1Mekc3CVg9_VeSN2xD-5" vertex="1">
          <mxGeometry y="30" width="170" height="30" as="geometry" />
        </mxCell>
        <mxCell id="Vw1Mekc3CVg9_VeSN2xD-49" value="&lt;font style=&quot;font-size: 18px;&quot;&gt;&amp;nbsp; - &lt;/font&gt;&lt;font size=&quot;3&quot; style=&quot;&quot;&gt;name&amp;nbsp; &amp;nbsp; &amp;nbsp; &amp;nbsp; &amp;nbsp;: String&lt;/font&gt;" style="text;strokeColor=none;fillColor=none;align=left;verticalAlign=middle;spacingLeft=4;spacingRight=4;overflow=hidden;points=[[0,0.5],[1,0.5]];portConstraint=eastwest;rotatable=0;whiteSpace=wrap;html=1;" parent="Vw1Mekc3CVg9_VeSN2xD-5" vertex="1">
          <mxGeometry y="60" width="170" height="30" as="geometry" />
        </mxCell>
        <mxCell id="Vw1Mekc3CVg9_VeSN2xD-50" value="&lt;font style=&quot;font-size: 18px;&quot;&gt;&amp;nbsp; - &lt;/font&gt;&lt;font size=&quot;3&quot; style=&quot;&quot;&gt;email&amp;nbsp; &amp;nbsp; &amp;nbsp; &amp;nbsp; &amp;nbsp;: String&lt;/font&gt;" style="text;strokeColor=none;fillColor=none;align=left;verticalAlign=middle;spacingLeft=4;spacingRight=4;overflow=hidden;points=[[0,0.5],[1,0.5]];portConstraint=eastwest;rotatable=0;whiteSpace=wrap;html=1;" parent="Vw1Mekc3CVg9_VeSN2xD-5" vertex="1">
          <mxGeometry y="90" width="170" height="30" as="geometry" />
        </mxCell>
        <mxCell id="Vw1Mekc3CVg9_VeSN2xD-51" value="&lt;font style=&quot;font-size: 18px;&quot;&gt;&amp;nbsp; - &lt;/font&gt;&lt;font size=&quot;3&quot; style=&quot;&quot;&gt;mobile_no&amp;nbsp; : String&lt;/font&gt;" style="text;strokeColor=none;fillColor=none;align=left;verticalAlign=middle;spacingLeft=4;spacingRight=4;overflow=hidden;points=[[0,0.5],[1,0.5]];portConstraint=eastwest;rotatable=0;whiteSpace=wrap;html=1;" parent="Vw1Mekc3CVg9_VeSN2xD-5" vertex="1">
          <mxGeometry y="120" width="170" height="30" as="geometry" />
        </mxCell>
        <mxCell id="Vw1Mekc3CVg9_VeSN2xD-52" value="&lt;font style=&quot;font-size: 18px;&quot;&gt;&amp;nbsp; - &lt;/font&gt;&lt;font size=&quot;3&quot; style=&quot;&quot;&gt;gender&amp;nbsp; &amp;nbsp; &amp;nbsp; &amp;nbsp;: String&lt;/font&gt;" style="text;strokeColor=none;fillColor=none;align=left;verticalAlign=middle;spacingLeft=4;spacingRight=4;overflow=hidden;points=[[0,0.5],[1,0.5]];portConstraint=eastwest;rotatable=0;whiteSpace=wrap;html=1;" parent="Vw1Mekc3CVg9_VeSN2xD-5" vertex="1">
          <mxGeometry y="150" width="170" height="30" as="geometry" />
        </mxCell>
        <mxCell id="Vw1Mekc3CVg9_VeSN2xD-53" value="&lt;font style=&quot;font-size: 18px;&quot;&gt;&amp;nbsp; - &lt;/font&gt;&lt;font size=&quot;3&quot; style=&quot;&quot;&gt;working_status&amp;nbsp; : boolean&lt;/font&gt;" style="text;strokeColor=none;fillColor=none;align=left;verticalAlign=middle;spacingLeft=4;spacingRight=4;overflow=hidden;points=[[0,0.5],[1,0.5]];portConstraint=eastwest;rotatable=0;whiteSpace=wrap;html=1;" parent="Vw1Mekc3CVg9_VeSN2xD-5" vertex="1">
          <mxGeometry y="180" width="220" height="30" as="geometry" />
        </mxCell>
        <mxCell id="Vw1Mekc3CVg9_VeSN2xD-54" value="&lt;font style=&quot;font-size: 18px;&quot;&gt;&amp;nbsp; - &lt;/font&gt;&lt;font size=&quot;3&quot; style=&quot;&quot;&gt;address&amp;nbsp; &amp;nbsp; &amp;nbsp;: String&lt;/font&gt;" style="text;strokeColor=none;fillColor=none;align=left;verticalAlign=middle;spacingLeft=4;spacingRight=4;overflow=hidden;points=[[0,0.5],[1,0.5]];portConstraint=eastwest;rotatable=0;whiteSpace=wrap;html=1;" parent="Vw1Mekc3CVg9_VeSN2xD-5" vertex="1">
          <mxGeometry y="210" width="170" height="30" as="geometry" />
        </mxCell>
        <mxCell id="Vw1Mekc3CVg9_VeSN2xD-55" value="&lt;font style=&quot;font-size: 18px;&quot;&gt;&amp;nbsp; - &lt;/font&gt;&lt;font size=&quot;3&quot; style=&quot;&quot;&gt;date&amp;nbsp; &amp;nbsp; &amp;nbsp; &amp;nbsp; &amp;nbsp; &amp;nbsp;: Date&lt;/font&gt;" style="text;strokeColor=none;fillColor=none;align=left;verticalAlign=middle;spacingLeft=4;spacingRight=4;overflow=hidden;points=[[0,0.5],[1,0.5]];portConstraint=eastwest;rotatable=0;whiteSpace=wrap;html=1;" parent="Vw1Mekc3CVg9_VeSN2xD-5" vertex="1">
          <mxGeometry y="240" width="170" height="30" as="geometry" />
        </mxCell>
        <mxCell id="Vw1Mekc3CVg9_VeSN2xD-56" value="" style="endArrow=none;html=1;rounded=0;exitX=0;exitY=0.75;exitDx=0;exitDy=0;" parent="Vw1Mekc3CVg9_VeSN2xD-5" edge="1">
          <mxGeometry width="50" height="50" relative="1" as="geometry">
            <mxPoint y="270" as="sourcePoint" />
            <mxPoint x="200" y="270" as="targetPoint" />
            <Array as="points">
              <mxPoint x="80" y="270" />
            </Array>
          </mxGeometry>
        </mxCell>
        <mxCell id="Vw1Mekc3CVg9_VeSN2xD-57" value="&lt;font style=&quot;font-size: 14px;&quot;&gt;&amp;nbsp; &amp;nbsp;+ insertRecord()&lt;/font&gt;" style="text;strokeColor=none;fillColor=none;align=left;verticalAlign=middle;spacingLeft=4;spacingRight=4;overflow=hidden;points=[[0,0.5],[1,0.5]];portConstraint=eastwest;rotatable=0;whiteSpace=wrap;html=1;" parent="Vw1Mekc3CVg9_VeSN2xD-5" vertex="1">
          <mxGeometry y="270" width="170" height="30" as="geometry" />
        </mxCell>
        <mxCell id="Vw1Mekc3CVg9_VeSN2xD-58" value="&lt;font style=&quot;font-size: 14px;&quot;&gt;&amp;nbsp; &amp;nbsp;+ updateRecord()&lt;/font&gt;" style="text;strokeColor=none;fillColor=none;align=left;verticalAlign=middle;spacingLeft=4;spacingRight=4;overflow=hidden;points=[[0,0.5],[1,0.5]];portConstraint=eastwest;rotatable=0;whiteSpace=wrap;html=1;" parent="Vw1Mekc3CVg9_VeSN2xD-5" vertex="1">
          <mxGeometry y="300" width="170" height="30" as="geometry" />
        </mxCell>
        <mxCell id="Vw1Mekc3CVg9_VeSN2xD-6" value="&lt;font style=&quot;font-size: 18px; font-weight: normal;&quot;&gt;Report&lt;/font&gt;" style="swimlane;whiteSpace=wrap;html=1;startSize=30;" parent="1" vertex="1">
          <mxGeometry x="560" y="600" width="200" height="240" as="geometry" />
        </mxCell>
        <mxCell id="Vw1Mekc3CVg9_VeSN2xD-59" value="&lt;font style=&quot;font-size: 18px;&quot;&gt;&amp;nbsp; - &lt;/font&gt;&lt;font size=&quot;3&quot; style=&quot;&quot;&gt;id&amp;nbsp; &amp;nbsp; &amp;nbsp; &amp;nbsp; &amp;nbsp; &amp;nbsp; &amp;nbsp; &amp;nbsp; &amp;nbsp;: int&lt;/font&gt;" style="text;strokeColor=none;fillColor=none;align=left;verticalAlign=middle;spacingLeft=4;spacingRight=4;overflow=hidden;points=[[0,0.5],[1,0.5]];portConstraint=eastwest;rotatable=0;whiteSpace=wrap;html=1;" parent="Vw1Mekc3CVg9_VeSN2xD-6" vertex="1">
          <mxGeometry y="30" width="170" height="30" as="geometry" />
        </mxCell>
        <mxCell id="Vw1Mekc3CVg9_VeSN2xD-60" value="&lt;font style=&quot;font-size: 18px;&quot;&gt;&amp;nbsp; - &lt;/font&gt;&lt;font size=&quot;3&quot; style=&quot;&quot;&gt;report_type : String&lt;/font&gt;" style="text;strokeColor=none;fillColor=none;align=left;verticalAlign=middle;spacingLeft=4;spacingRight=4;overflow=hidden;points=[[0,0.5],[1,0.5]];portConstraint=eastwest;rotatable=0;whiteSpace=wrap;html=1;" parent="Vw1Mekc3CVg9_VeSN2xD-6" vertex="1">
          <mxGeometry y="60" width="170" height="30" as="geometry" />
        </mxCell>
        <mxCell id="Vw1Mekc3CVg9_VeSN2xD-61" value="&lt;font style=&quot;font-size: 18px;&quot;&gt;&amp;nbsp; - &lt;/font&gt;&lt;font size=&quot;3&quot; style=&quot;&quot;&gt;report_data&amp;nbsp;&lt;/font&gt;" style="text;strokeColor=none;fillColor=none;align=left;verticalAlign=middle;spacingLeft=4;spacingRight=4;overflow=hidden;points=[[0,0.5],[1,0.5]];portConstraint=eastwest;rotatable=0;whiteSpace=wrap;html=1;" parent="Vw1Mekc3CVg9_VeSN2xD-6" vertex="1">
          <mxGeometry y="90" width="170" height="30" as="geometry" />
        </mxCell>
        <mxCell id="Vw1Mekc3CVg9_VeSN2xD-63" value="&lt;font style=&quot;font-size: 18px;&quot;&gt;&amp;nbsp; - &lt;/font&gt;&lt;font size=&quot;3&quot; style=&quot;&quot;&gt;generated_date : Date&lt;/font&gt;" style="text;strokeColor=none;fillColor=none;align=left;verticalAlign=middle;spacingLeft=4;spacingRight=4;overflow=hidden;points=[[0,0.5],[1,0.5]];portConstraint=eastwest;rotatable=0;whiteSpace=wrap;html=1;" parent="Vw1Mekc3CVg9_VeSN2xD-6" vertex="1">
          <mxGeometry y="120" width="200" height="30" as="geometry" />
        </mxCell>
        <mxCell id="Vw1Mekc3CVg9_VeSN2xD-64" value="" style="endArrow=none;html=1;rounded=0;exitX=0;exitY=0.75;exitDx=0;exitDy=0;" parent="Vw1Mekc3CVg9_VeSN2xD-6" edge="1">
          <mxGeometry width="50" height="50" relative="1" as="geometry">
            <mxPoint y="160" as="sourcePoint" />
            <mxPoint x="200" y="160" as="targetPoint" />
          </mxGeometry>
        </mxCell>
        <mxCell id="Vw1Mekc3CVg9_VeSN2xD-65" value="&lt;font style=&quot;font-size: 14px;&quot;&gt;&amp;nbsp; &amp;nbsp;+ searchData()&lt;/font&gt;" style="text;strokeColor=none;fillColor=none;align=left;verticalAlign=middle;spacingLeft=4;spacingRight=4;overflow=hidden;points=[[0,0.5],[1,0.5]];portConstraint=eastwest;rotatable=0;whiteSpace=wrap;html=1;" parent="Vw1Mekc3CVg9_VeSN2xD-6" vertex="1">
          <mxGeometry y="190" width="170" height="30" as="geometry" />
        </mxCell>
        <mxCell id="Vw1Mekc3CVg9_VeSN2xD-66" value="&lt;font style=&quot;font-size: 14px;&quot;&gt;&amp;nbsp; &amp;nbsp;+ printReport()&lt;/font&gt;" style="text;strokeColor=none;fillColor=none;align=left;verticalAlign=middle;spacingLeft=4;spacingRight=4;overflow=hidden;points=[[0,0.5],[1,0.5]];portConstraint=eastwest;rotatable=0;whiteSpace=wrap;html=1;" parent="Vw1Mekc3CVg9_VeSN2xD-6" vertex="1">
          <mxGeometry y="160" width="170" height="30" as="geometry" />
        </mxCell>
        <mxCell id="Vw1Mekc3CVg9_VeSN2xD-45" value="" style="endArrow=none;html=1;rounded=0;entryX=1;entryY=0.75;entryDx=0;entryDy=0;exitX=0;exitY=0.75;exitDx=0;exitDy=0;" parent="1" source="Vw1Mekc3CVg9_VeSN2xD-4" target="Vw1Mekc3CVg9_VeSN2xD-4" edge="1">
          <mxGeometry width="50" height="50" relative="1" as="geometry">
            <mxPoint x="190" y="740" as="sourcePoint" />
            <mxPoint x="240" y="690" as="targetPoint" />
          </mxGeometry>
        </mxCell>
        <mxCell id="Vw1Mekc3CVg9_VeSN2xD-67" value="" style="endArrow=none;html=1;rounded=0;entryX=0.5;entryY=1;entryDx=0;entryDy=0;exitX=0.5;exitY=0;exitDx=0;exitDy=0;" parent="1" source="Vw1Mekc3CVg9_VeSN2xD-5" target="Vw1Mekc3CVg9_VeSN2xD-2" edge="1">
          <mxGeometry width="50" height="50" relative="1" as="geometry">
            <mxPoint x="430" y="640" as="sourcePoint" />
            <mxPoint x="480" y="590" as="targetPoint" />
          </mxGeometry>
        </mxCell>
        <mxCell id="Vw1Mekc3CVg9_VeSN2xD-69" value="" style="endArrow=none;html=1;rounded=0;entryX=1;entryY=0.5;entryDx=0;entryDy=0;exitX=0;exitY=0.5;exitDx=0;exitDy=0;" parent="1" source="Vw1Mekc3CVg9_VeSN2xD-51" target="Vw1Mekc3CVg9_VeSN2xD-43" edge="1">
          <mxGeometry width="50" height="50" relative="1" as="geometry">
            <mxPoint x="430" y="660" as="sourcePoint" />
            <mxPoint x="480" y="610" as="targetPoint" />
          </mxGeometry>
        </mxCell>
        <mxCell id="Vw1Mekc3CVg9_VeSN2xD-70" value="" style="endArrow=none;html=1;rounded=0;entryX=0.883;entryY=-0.033;entryDx=0;entryDy=0;exitX=1;exitY=0;exitDx=0;exitDy=0;entryPerimeter=0;" parent="1" source="Vw1Mekc3CVg9_VeSN2xD-5" target="Vw1Mekc3CVg9_VeSN2xD-73" edge="1">
          <mxGeometry width="50" height="50" relative="1" as="geometry">
            <mxPoint x="390" y="680" as="sourcePoint" />
            <mxPoint x="440" y="630" as="targetPoint" />
            <Array as="points">
              <mxPoint x="670" y="560" />
            </Array>
          </mxGeometry>
        </mxCell>
        <mxCell id="Vw1Mekc3CVg9_VeSN2xD-71" value="&lt;font style=&quot;font-size: 14px;&quot;&gt;1&lt;/font&gt;" style="text;html=1;align=center;verticalAlign=middle;whiteSpace=wrap;rounded=0;" parent="1" vertex="1">
          <mxGeometry x="470" y="535" width="60" height="30" as="geometry" />
        </mxCell>
        <mxCell id="Vw1Mekc3CVg9_VeSN2xD-73" value="&lt;font style=&quot;font-size: 14px;&quot;&gt;1...*&lt;/font&gt;" style="text;html=1;align=center;verticalAlign=middle;whiteSpace=wrap;rounded=0;" parent="1" vertex="1">
          <mxGeometry x="620" y="360" width="60" height="30" as="geometry" />
        </mxCell>
        <mxCell id="Vw1Mekc3CVg9_VeSN2xD-74" value="&lt;font style=&quot;font-size: 14px;&quot;&gt;1&lt;/font&gt;" style="text;html=1;align=center;verticalAlign=middle;whiteSpace=wrap;rounded=0;" parent="1" vertex="1">
          <mxGeometry x="380" y="535" width="60" height="30" as="geometry" />
        </mxCell>
        <mxCell id="Vw1Mekc3CVg9_VeSN2xD-76" value="&lt;font style=&quot;font-size: 14px;&quot;&gt;1...*&lt;/font&gt;" style="text;html=1;align=center;verticalAlign=middle;whiteSpace=wrap;rounded=0;" parent="1" vertex="1">
          <mxGeometry x="380" y="505" width="60" height="30" as="geometry" />
        </mxCell>
        <mxCell id="Vw1Mekc3CVg9_VeSN2xD-77" value="&lt;font style=&quot;font-size: 14px;&quot;&gt;1&lt;/font&gt;" style="text;html=1;align=center;verticalAlign=middle;whiteSpace=wrap;rounded=0;" parent="1" vertex="1">
          <mxGeometry x="280" y="670" width="60" height="30" as="geometry" />
        </mxCell>
        <mxCell id="Vw1Mekc3CVg9_VeSN2xD-78" value="&lt;font style=&quot;font-size: 14px;&quot;&gt;1..*&lt;/font&gt;" style="text;html=1;align=center;verticalAlign=middle;whiteSpace=wrap;rounded=0;" parent="1" vertex="1">
          <mxGeometry x="250" y="670" width="60" height="30" as="geometry" />
        </mxCell>
      </root>
    </mxGraphModel>
  </diagram>
</mxfile>
